<svg aria-hidden="true" style="position: absolute; width: 0; height: 0; overflow: hidden;" version="1.1"
    xmlns="http://www.w3.org/2000/svg" xmlns:xlink="http://www.w3.org/1999/xlink">
    <defs>
        <symbol id="language-icon" viewBox="0 0 31 32">
            <path fill="#e3e3e3" style="fill: var(--color1, #e3e3e3)"
                d="M15.448 0c-8.524 0-15.448 6.924-15.448 15.448s6.924 15.448 15.448 15.448c8.524 0 15.448-6.924 15.448-15.448s-6.924-15.448-15.448-15.448zM14.779 1.417v6.649c-1.719-0.041-3.352-0.233-4.859-0.548 0.265-0.804 0.567-1.551 0.902-2.221 1.106-2.213 2.51-3.559 3.957-3.88zM16.118 1.417c1.448 0.321 2.851 1.667 3.957 3.88 0.336 0.673 0.639 1.422 0.905 2.229-1.505 0.312-3.141 0.5-4.862 0.54v-6.649zM11.547 1.888c-0.727 0.761-1.374 1.713-1.923 2.811-0.382 0.765-0.718 1.609-1.011 2.509-1.314-0.354-2.502-0.8-3.528-1.318 1.727-1.871 3.945-3.28 6.462-4.002zM19.349 1.888c2.515 0.721 4.731 2.128 6.457 3.996-1.011 0.527-2.198 0.978-3.519 1.333-0.293-0.904-0.631-1.751-1.014-2.519-0.549-1.097-1.197-2.050-1.923-2.811zM26.682 6.93c1.671 2.202 2.722 4.902 2.859 7.849h-6.051c-0.049-2.247-0.336-4.369-0.827-6.27 1.502-0.406 2.855-0.939 4.020-1.579zM4.207 6.94c1.177 0.625 2.533 1.151 4.030 1.557-0.493 1.904-0.781 4.030-0.83 6.282h-6.051c0.137-2.943 1.184-5.638 2.851-7.838zM9.542 8.812c1.628 0.346 3.388 0.553 5.237 0.594v5.373h-6.033c0.050-2.15 0.331-4.175 0.796-5.966zM21.357 8.822c0.464 1.789 0.744 3.811 0.794 5.957h-6.033v-5.373c1.85-0.040 3.612-0.241 5.24-0.584zM1.356 16.118h6.051c0.049 2.247 0.336 4.369 0.828 6.27-1.502 0.406-2.856 0.939-4.020 1.579-1.671-2.202-2.722-4.902-2.859-7.849zM8.746 16.118h6.033v5.373c-1.85 0.040-3.612 0.241-5.24 0.584-0.464-1.789-0.744-3.811-0.794-5.957zM16.118 16.118h6.033c-0.050 2.15-0.331 4.175-0.796 5.966-1.628-0.346-3.388-0.553-5.237-0.594v-5.373zM23.489 16.118h6.051c-0.137 2.943-1.184 5.638-2.851 7.838-1.177-0.625-2.533-1.151-4.030-1.557 0.493-1.904 0.781-4.030 0.83-6.282zM14.779 22.831v6.649c-1.448-0.321-2.851-1.667-3.957-3.88-0.336-0.673-0.639-1.422-0.905-2.229 1.505-0.312 3.141-0.5 4.862-0.54zM16.118 22.831c1.718 0.041 3.352 0.233 4.859 0.548-0.265 0.804-0.567 1.551-0.902 2.221-1.106 2.213-2.51 3.559-3.957 3.88v-6.649zM8.61 23.679c0.293 0.904 0.631 1.751 1.014 2.519 0.549 1.097 1.197 2.050 1.923 2.811-2.515-0.721-4.731-2.128-6.457-3.996 1.011-0.527 2.198-0.978 3.519-1.333zM22.283 23.689c1.314 0.354 2.502 0.8 3.528 1.318-1.727 1.871-3.945 3.28-6.462 4.002 0.727-0.761 1.374-1.713 1.923-2.811 0.382-0.765 0.718-1.609 1.011-2.509z">
            </path>
        </symbol>
        <symbol id="logo-icon" viewBox="0 0 67 32">
            <path fill="#d2c9be" style="fill: var(--color2, #d2c9be)"
                d="M39.162 21.733c0 0.742-0.282 1.318-0.845 1.728-0.563 0.401-1.284 0.602-2.163 0.602-0.87 0-1.783-0.205-2.739-0.614 0.162-1.408 0.26-2.112 0.294-2.112 0.367 0 0.55 0.051 0.55 0.154v1.421c0.555 0.358 1.173 0.538 1.856 0.538 0.691 0 1.19-0.145 1.498-0.435s0.461-0.661 0.461-1.114c0-0.589-0.303-1.058-0.909-1.408l-2.266-1.293c-0.427-0.239-0.751-0.538-0.973-0.896-0.222-0.367-0.333-0.751-0.333-1.152 0-0.64 0.26-1.19 0.781-1.651 0.529-0.469 1.246-0.704 2.15-0.704 0.657 0 1.395 0.154 2.214 0.461l-0.333 1.971c-0.358 0-0.538-0.060-0.538-0.179v-1.293c-0.461-0.213-0.934-0.32-1.421-0.32-0.87 0-1.502 0.32-1.894 0.96-0.043 0.145-0.064 0.316-0.064 0.512 0 0.589 0.32 1.067 0.96 1.434l2.202 1.254c0.486 0.282 0.858 0.614 1.114 0.998 0.265 0.384 0.397 0.764 0.397 1.139zM43.485 23.448c-0.495 0.41-1.011 0.614-1.549 0.614-0.691 0-1.037-0.405-1.037-1.216v-4.16h-0.794c-0.119 0-0.179-0.166-0.179-0.499l1.062-0.179 0.333-1.434 0.486-0.154v1.651h1.51c0 0.41-0.060 0.614-0.179 0.614h-1.331v4.083c0 0.435 0.166 0.653 0.499 0.653 0.247 0 0.567-0.119 0.96-0.358 0.111 0.102 0.183 0.23 0.218 0.384zM48.651 18.738l-1.894 5.171-1.408 3.11c-0.068 0.162-0.183 0.243-0.346 0.243s-0.405-0.090-0.73-0.269l0.358-0.576c0.23-0.393 0.508-0.866 0.832-1.421 0.333-0.546 0.572-0.939 0.717-1.178l-1.971-5.082-0.602-0.282c0-0.256 0.060-0.384 0.179-0.384l0.998 0.051 0.934-0.051c0.119 0 0.179 0.128 0.179 0.384l-0.794 0.256 1.523 3.917 1.395-3.917-0.794-0.256c0-0.256 0.055-0.384 0.166-0.384l0.883 0.051 0.794-0.051c0.119 0 0.179 0.128 0.179 0.384l-0.602 0.282zM52.573 23.909l-1.37-0.051-1.382 0.051c-0.119 0-0.179-0.128-0.179-0.384l1.101-0.282v-8.346h-0.909c-0.119 0-0.179-0.158-0.179-0.474 0-0.017 0.282-0.064 0.845-0.141 0.572-0.085 0.887-0.128 0.947-0.128 0.137 0.077 0.205 0.196 0.205 0.358v8.73l1.101 0.282c0 0.256-0.060 0.384-0.179 0.384zM55.533 23.244l1.101 0.282c0 0.256-0.060 0.384-0.179 0.384l-1.37-0.051-1.382 0.051c-0.119 0-0.179-0.128-0.179-0.384l1.101-0.282v-4.582h-0.909c-0.119 0-0.179-0.158-0.179-0.474 0-0.017 0.282-0.064 0.845-0.141 0.572-0.085 0.887-0.128 0.947-0.128 0.137 0.077 0.205 0.196 0.205 0.358v4.966zM55.213 15.244c0.29 0 0.435 0.239 0.435 0.717l-0.090 0.717c-0.265 0.077-0.482 0.115-0.653 0.115-0.299 0-0.448-0.235-0.448-0.704 0-0.213 0.034-0.465 0.102-0.755 0.273-0.060 0.491-0.090 0.653-0.090zM60.675 18.712c-0.273-0.154-0.623-0.23-1.050-0.23s-0.789 0.145-1.088 0.435c-0.034 0.102-0.051 0.243-0.051 0.422 0 0.307 0.158 0.55 0.474 0.73l1.6 0.922c0.725 0.427 1.088 0.939 1.088 1.536 0 0.495-0.192 0.875-0.576 1.139s-0.909 0.397-1.574 0.397c-0.657 0-1.314-0.111-1.971-0.333 0-0.128 0.043-0.439 0.128-0.934s0.132-0.742 0.141-0.742c0.316 0 0.474 0.060 0.474 0.179v0.922c0.341 0.247 0.734 0.371 1.178 0.371 0.879 0 1.318-0.294 1.318-0.883 0-0.324-0.213-0.61-0.64-0.858l-1.485-0.858c-0.606-0.35-0.909-0.832-0.909-1.446 0-0.435 0.179-0.802 0.538-1.101 0.358-0.307 0.841-0.457 1.446-0.448 0.614 0 1.182 0.098 1.702 0.294 0 0.119-0.043 0.401-0.128 0.845s-0.132 0.666-0.141 0.666c-0.316 0-0.474-0.060-0.474-0.179v-0.845zM65.948 23.448c-0.495 0.41-1.011 0.614-1.549 0.614-0.691 0-1.037-0.405-1.037-1.216v-4.16h-0.794c-0.119 0-0.179-0.166-0.179-0.499l1.062-0.179 0.333-1.434 0.486-0.154v1.651h1.51c0 0.41-0.060 0.614-0.179 0.614h-1.331v4.083c0 0.435 0.166 0.653 0.499 0.653 0.247 0 0.567-0.119 0.96-0.358 0.111 0.102 0.183 0.23 0.218 0.384z">
            </path>
            <path fill="none" stroke="#d2c9be" style="stroke: var(--color2, #d2c9be)" stroke-linejoin="miter"
                stroke-linecap="butt" stroke-miterlimit="4" stroke-width="0.7111"
                d="M0.711 16.3c10.892 1.647 49.399-4.498 49.882-5.87M16.073 25.525c8.985 0 27.397-1.098 36.55 5.764">
            </path>
            <path fill="#d2c9be" style="fill: var(--color2, #d2c9be)"
                d="M3.306 3.261v6.917c0.2 0.026 0.393 0.046 0.578 0.061 0.185 0.011 0.367 0.017 0.544 0.017 0.626 0 1.187-0.080 1.683-0.239 0.496-0.163 0.917-0.407 1.261-0.733 0.344-0.33 0.607-0.739 0.789-1.228 0.185-0.493 0.278-1.070 0.278-1.733-0.004-0.437-0.059-0.824-0.167-1.161s-0.257-0.63-0.45-0.878c-0.193-0.252-0.42-0.461-0.683-0.628-0.259-0.17-0.543-0.307-0.85-0.411-0.304-0.107-0.626-0.183-0.967-0.228-0.337-0.044-0.68-0.067-1.028-0.067-0.167 0-0.333 0.006-0.5 0.017s-0.337 0.026-0.511 0.044c0.007 0.052 0.013 0.1 0.017 0.144 0.004 0.041 0.006 0.076 0.006 0.106zM1.45 2.828c0.322-0.041 0.611-0.076 0.867-0.106 0.256-0.033 0.504-0.061 0.744-0.083s0.489-0.039 0.744-0.050c0.256-0.011 0.544-0.017 0.867-0.017 0.278 0 0.532 0.007 0.761 0.022s0.446 0.041 0.65 0.078c0.207 0.033 0.409 0.080 0.606 0.139 0.2 0.056 0.409 0.124 0.628 0.206 0.293 0.111 0.561 0.261 0.806 0.45 0.248 0.185 0.461 0.413 0.639 0.683s0.315 0.585 0.411 0.944c0.1 0.359 0.15 0.769 0.15 1.228-0.004 0.544-0.074 1.030-0.211 1.456s-0.328 0.8-0.572 1.122c-0.244 0.322-0.535 0.596-0.872 0.822-0.333 0.226-0.696 0.409-1.089 0.55s-0.807 0.243-1.244 0.306c-0.437 0.063-0.88 0.094-1.328 0.094-0.037 0-0.159 0-0.367 0-0.204 0.004-0.422 0.015-0.656 0.033s-0.437 0.039-0.611 0.061l-0.033-0.056c0.074-0.107 0.111-0.304 0.111-0.589v-5.85c0-0.244-0.011-0.448-0.033-0.611-0.022-0.167-0.063-0.3-0.122-0.4s-0.143-0.17-0.25-0.211c-0.107-0.044-0.209-0.067-0.306-0.067s-0.157 0-0.183 0c-0.026 0-0.054 0.002-0.083 0.006l-0.022-0.161zM14.9 10.039c0 0.063 0.013 0.122 0.039 0.178 0.030 0.052 0.063 0.096 0.1 0.133 0.041 0.033 0.098 0.067 0.172 0.1s0.139 0.059 0.194 0.078c0.056 0.018 0.133 0.043 0.233 0.072l-0.044 0.133c-0.237-0.044-0.472-0.067-0.706-0.067-0.293 0-0.581 0.030-0.867 0.089l-0.033-0.056c0.078-0.107 0.117-0.304 0.117-0.589v-0.367c-0.185 0.344-0.474 0.622-0.867 0.833-0.389 0.211-0.783 0.317-1.183 0.317-0.426 0-0.77-0.109-1.033-0.328-0.259-0.222-0.389-0.55-0.389-0.983 0-0.282 0.057-0.531 0.172-0.75 0.119-0.222 0.274-0.409 0.467-0.561 0.196-0.156 0.446-0.293 0.75-0.411 0.307-0.119 0.622-0.215 0.944-0.289 0.326-0.074 0.706-0.143 1.139-0.205v-0.511c0-1.019-0.402-1.528-1.206-1.528-0.259 0-0.578 0.065-0.956 0.194-0.374 0.126-0.689 0.293-0.944 0.5l-0.228-0.261c0.322-0.256 0.704-0.467 1.144-0.633 0.444-0.167 0.859-0.25 1.244-0.25 0.17 0 0.332 0.017 0.483 0.050 0.156 0.030 0.311 0.087 0.467 0.172 0.159 0.081 0.294 0.187 0.406 0.317 0.115 0.126 0.207 0.296 0.278 0.511 0.070 0.211 0.106 0.452 0.106 0.722v3.389zM12.317 10.472c0.322 0 0.659-0.106 1.011-0.317 0.352-0.215 0.611-0.481 0.778-0.8v-1.694c-0.948 0.137-1.626 0.348-2.033 0.633-0.404 0.281-0.606 0.693-0.606 1.233 0 0.33 0.070 0.57 0.211 0.722 0.141 0.148 0.354 0.222 0.639 0.222zM17.439 6.55c0-0.248-0.013-0.456-0.039-0.622-0.022-0.167-0.065-0.3-0.128-0.4-0.059-0.1-0.143-0.17-0.25-0.211s-0.294-0.059-0.561-0.056l-0.022-0.1c0.604-0.181 1.165-0.272 1.683-0.272 0.078 0.196 0.117 0.407 0.117 0.633v0.683l0.022 0.022c0.156-0.215 0.304-0.406 0.444-0.572 0.144-0.167 0.291-0.306 0.439-0.417s0.304-0.194 0.467-0.25c0.163-0.059 0.344-0.089 0.544-0.089 0.126 0 0.265 0.011 0.417 0.033l-0.322 1.356-0.206-0.061c0-0.056-0.004-0.131-0.011-0.228s-0.019-0.191-0.033-0.283c-0.011-0.096-0.028-0.178-0.050-0.244-0.019-0.070-0.041-0.106-0.067-0.106-0.107 0-0.217 0.024-0.328 0.072-0.107 0.044-0.226 0.119-0.356 0.222s-0.272 0.239-0.428 0.406c-0.156 0.167-0.333 0.369-0.533 0.606v3.233c0 0.119 0.009 0.215 0.028 0.289 0.018 0.070 0.057 0.13 0.117 0.178s0.143 0.091 0.25 0.128c0.107 0.037 0.248 0.078 0.422 0.122l-0.044 0.133c-0.215-0.030-0.398-0.052-0.55-0.067-0.148-0.015-0.268-0.022-0.361-0.022-0.211 0-0.457 0.030-0.739 0.089l-0.033-0.056c0.074-0.107 0.111-0.304 0.111-0.589v-3.561zM26.556 5.056l-2.367 6.133c-0.1 0.263-0.187 0.48-0.261 0.65-0.070 0.17-0.154 0.346-0.25 0.528-0.096 0.185-0.191 0.335-0.283 0.45-0.089 0.115-0.194 0.219-0.317 0.311-0.118 0.096-0.248 0.17-0.389 0.222-0.589 0.022-1.105-0.178-1.55-0.6 0.2-0.244 0.478-0.454 0.833-0.628l0.067 0.067c0.148 0.344 0.387 0.593 0.717 0.744 0.159-0.13 0.322-0.344 0.489-0.644 0.17-0.296 0.38-0.78 0.628-1.45l-1.978-4.678c-0.104-0.263-0.22-0.452-0.35-0.567-0.126-0.115-0.257-0.17-0.394-0.167-0.133 0.004-0.287 0.017-0.461 0.039l-0.061-0.111c0.622-0.311 1.169-0.467 1.639-0.467l1.672 4.072c0.074 0.178 0.161 0.518 0.261 1.022h0.095c0.178-0.589 0.268-0.889 0.272-0.9l1.239-3.55c0.048-0.133-0.007-0.228-0.167-0.283-0.159-0.059-0.4-0.074-0.722-0.044l-0.033-0.139c0.315-0.063 0.85-0.104 1.606-0.122l0.067 0.111zM31.344 10.039c0 0.063 0.013 0.122 0.039 0.178 0.030 0.052 0.063 0.096 0.1 0.133 0.041 0.033 0.098 0.067 0.172 0.1s0.139 0.059 0.195 0.078c0.056 0.018 0.133 0.043 0.233 0.072l-0.044 0.133c-0.237-0.044-0.472-0.067-0.706-0.067-0.293 0-0.581 0.030-0.867 0.089l-0.033-0.056c0.078-0.107 0.117-0.304 0.117-0.589v-0.367c-0.185 0.344-0.474 0.622-0.867 0.833-0.389 0.211-0.783 0.317-1.183 0.317-0.426 0-0.77-0.109-1.033-0.328-0.259-0.222-0.389-0.55-0.389-0.983 0-0.282 0.057-0.531 0.172-0.75 0.119-0.222 0.274-0.409 0.467-0.561 0.196-0.156 0.446-0.293 0.75-0.411 0.307-0.119 0.622-0.215 0.945-0.289 0.326-0.074 0.706-0.143 1.139-0.205v-0.511c0-1.019-0.402-1.528-1.206-1.528-0.259 0-0.578 0.065-0.956 0.194-0.374 0.126-0.689 0.293-0.944 0.5l-0.228-0.261c0.322-0.256 0.704-0.467 1.144-0.633 0.444-0.167 0.859-0.25 1.244-0.25 0.17 0 0.332 0.017 0.483 0.050 0.156 0.030 0.311 0.087 0.467 0.172 0.159 0.081 0.294 0.187 0.406 0.317 0.115 0.126 0.207 0.296 0.278 0.511 0.070 0.211 0.106 0.452 0.106 0.722v3.389zM28.761 10.472c0.322 0 0.659-0.106 1.011-0.317 0.352-0.215 0.611-0.481 0.778-0.8v-1.694c-0.948 0.137-1.626 0.348-2.033 0.633-0.404 0.281-0.606 0.693-0.606 1.233 0 0.33 0.070 0.57 0.211 0.722 0.141 0.148 0.354 0.222 0.639 0.222z">
            </path>
        </symbol>
        <symbol id="menu-btn-icon" viewBox="0 0 41 32">
            <path fill="none" stroke="#e3e3e3" style="stroke: var(--color1, #e3e3e3)" stroke-linejoin="miter"
                stroke-linecap="round" stroke-miterlimit="4" stroke-width="1.28" d="M1.28 0.64h35.84"></path>
            <path fill="none" stroke="#e3e3e3" style="stroke: var(--color1, #e3e3e3)" stroke-linejoin="miter"
                stroke-linecap="round" stroke-miterlimit="4" stroke-width="1.28" d="M3.84 9.173h35.84"></path>
            <path fill="none" stroke="#e3e3e3" style="stroke: var(--color1, #e3e3e3)" stroke-linejoin="miter"
                stroke-linecap="round" stroke-miterlimit="4" stroke-width="1.28" d="M1.28 17.707h35.84"></path>
            <path fill="none" stroke="#e3e3e3" style="stroke: var(--color1, #e3e3e3)" stroke-linejoin="miter"
                stroke-linecap="round" stroke-miterlimit="4" stroke-width="1.28" d="M3.84 26.24h35.84"></path>
        </symbol>
        <symbol id="next-icon" viewBox="0 0 68 32">
            <path fill="none" stroke="#d2c9be" style="stroke: var(--color2, #d2c9be)" stroke-linejoin="miter"
                stroke-linecap="butt" stroke-miterlimit="4" stroke-width="1.0323"
                d="M1.032 1.032l33.032 29.935 33.032-29.935"></path>
        </symbol>
    </defs>
</svg>