<svg aria-hidden="true" style="position: absolute; width: 0; height: 0; overflow: hidden;" version="1.1"
    xmlns="http://www.w3.org/2000/svg" xmlns:xlink="http://www.w3.org/1999/xlink">
    <defs>
        <symbol id="language-icon" viewBox="0 0 31 32">
            <path fill="#e3e3e3" style="fill: var(--color1, #e3e3e3)"
                d="M15.448 0c-8.524 0-15.448 6.924-15.448 15.448s6.924 15.448 15.448 15.448c8.524 0 15.448-6.924 15.448-15.448s-6.924-15.448-15.448-15.448zM14.779 1.417v6.649c-1.719-0.041-3.352-0.233-4.859-0.548 0.265-0.804 0.567-1.551 0.902-2.221 1.106-2.213 2.51-3.559 3.957-3.88zM16.118 1.417c1.448 0.321 2.851 1.667 3.957 3.88 0.336 0.673 0.639 1.422 0.905 2.229-1.505 0.312-3.141 0.5-4.862 0.54v-6.649zM11.547 1.888c-0.727 0.761-1.374 1.713-1.923 2.811-0.382 0.765-0.718 1.609-1.011 2.509-1.314-0.354-2.502-0.8-3.528-1.318 1.727-1.871 3.945-3.28 6.462-4.002zM19.349 1.888c2.515 0.721 4.731 2.128 6.457 3.996-1.011 0.527-2.198 0.978-3.519 1.333-0.293-0.904-0.631-1.751-1.014-2.519-0.549-1.097-1.197-2.050-1.923-2.811zM26.682 6.93c1.671 2.202 2.722 4.902 2.859 7.849h-6.051c-0.049-2.247-0.336-4.369-0.827-6.27 1.502-0.406 2.855-0.939 4.020-1.579zM4.207 6.94c1.177 0.625 2.533 1.151 4.030 1.557-0.493 1.904-0.781 4.030-0.83 6.282h-6.051c0.137-2.943 1.184-5.638 2.851-7.838zM9.542 8.812c1.628 0.346 3.388 0.553 5.237 0.594v5.373h-6.033c0.050-2.15 0.331-4.175 0.796-5.966zM21.357 8.822c0.464 1.789 0.744 3.811 0.794 5.957h-6.033v-5.373c1.85-0.040 3.612-0.241 5.24-0.584zM1.356 16.118h6.051c0.049 2.247 0.336 4.369 0.828 6.27-1.502 0.406-2.856 0.939-4.020 1.579-1.671-2.202-2.722-4.902-2.859-7.849zM8.746 16.118h6.033v5.373c-1.85 0.040-3.612 0.241-5.24 0.584-0.464-1.789-0.744-3.811-0.794-5.957zM16.118 16.118h6.033c-0.050 2.15-0.331 4.175-0.796 5.966-1.628-0.346-3.388-0.553-5.237-0.594v-5.373zM23.489 16.118h6.051c-0.137 2.943-1.184 5.638-2.851 7.838-1.177-0.625-2.533-1.151-4.030-1.557 0.493-1.904 0.781-4.030 0.83-6.282zM14.779 22.831v6.649c-1.448-0.321-2.851-1.667-3.957-3.88-0.336-0.673-0.639-1.422-0.905-2.229 1.505-0.312 3.141-0.5 4.862-0.54zM16.118 22.831c1.718 0.041 3.352 0.233 4.859 0.548-0.265 0.804-0.567 1.551-0.902 2.221-1.106 2.213-2.51 3.559-3.957 3.88v-6.649zM8.61 23.679c0.293 0.904 0.631 1.751 1.014 2.519 0.549 1.097 1.197 2.050 1.923 2.811-2.515-0.721-4.731-2.128-6.457-3.996 1.011-0.527 2.198-0.978 3.519-1.333zM22.283 23.689c1.314 0.354 2.502 0.8 3.528 1.318-1.727 1.871-3.945 3.28-6.462 4.002 0.727-0.761 1.374-1.713 1.923-2.811 0.382-0.765 0.718-1.609 1.011-2.509z">
            </path>
        </symbol>
        <symbol id="logo-icon" viewBox="0 0 67 32">
            <path fill="#d2c9be" style="fill: var(--color2, #d2c9be)"
                d="M39.162 21.733c0 0.742-0.282 1.318-0.845 1.728-0.563 0.401-1.284 0.602-2.163 0.602-0.87 0-1.783-0.205-2.739-0.614 0.162-1.408 0.26-2.112 0.294-2.112 0.367 0 0.55 0.051 0.55 0.154v1.421c0.555 0.358 1.173 0.538 1.856 0.538 0.691 0 1.19-0.145 1.498-0.435s0.461-0.661 0.461-1.114c0-0.589-0.303-1.058-0.909-1.408l-2.266-1.293c-0.427-0.239-0.751-0.538-0.973-0.896-0.222-0.367-0.333-0.751-0.333-1.152 0-0.64 0.26-1.19 0.781-1.651 0.529-0.469 1.246-0.704 2.15-0.704 0.657 0 1.395 0.154 2.214 0.461l-0.333 1.971c-0.358 0-0.538-0.060-0.538-0.179v-1.293c-0.461-0.213-0.934-0.32-1.421-0.32-0.87 0-1.502 0.32-1.894 0.96-0.043 0.145-0.064 0.316-0.064 0.512 0 0.589 0.32 1.067 0.96 1.434l2.202 1.254c0.486 0.282 0.858 0.614 1.114 0.998 0.265 0.384 0.397 0.764 0.397 1.139zM43.485 23.448c-0.495 0.41-1.011 0.614-1.549 0.614-0.691 0-1.037-0.405-1.037-1.216v-4.16h-0.794c-0.119 0-0.179-0.166-0.179-0.499l1.062-0.179 0.333-1.434 0.486-0.154v1.651h1.51c0 0.41-0.060 0.614-0.179 0.614h-1.331v4.083c0 0.435 0.166 0.653 0.499 0.653 0.247 0 0.567-0.119 0.96-0.358 0.111 0.102 0.183 0.23 0.218 0.384zM48.651 18.738l-1.894 5.171-1.408 3.11c-0.068 0.162-0.183 0.243-0.346 0.243s-0.405-0.090-0.73-0.269l0.358-0.576c0.23-0.393 0.508-0.866 0.832-1.421 0.333-0.546 0.572-0.939 0.717-1.178l-1.971-5.082-0.602-0.282c0-0.256 0.060-0.384 0.179-0.384l0.998 0.051 0.934-0.051c0.119 0 0.179 0.128 0.179 0.384l-0.794 0.256 1.523 3.917 1.395-3.917-0.794-0.256c0-0.256 0.055-0.384 0.166-0.384l0.883 0.051 0.794-0.051c0.119 0 0.179 0.128 0.179 0.384l-0.602 0.282zM52.573 23.909l-1.37-0.051-1.382 0.051c-0.119 0-0.179-0.128-0.179-0.384l1.101-0.282v-8.346h-0.909c-0.119 0-0.179-0.158-0.179-0.474 0-0.017 0.282-0.064 0.845-0.141 0.572-0.085 0.887-0.128 0.947-0.128 0.137 0.077 0.205 0.196 0.205 0.358v8.73l1.101 0.282c0 0.256-0.060 0.384-0.179 0.384zM55.533 23.244l1.101 0.282c0 0.256-0.060 0.384-0.179 0.384l-1.37-0.051-1.382 0.051c-0.119 0-0.179-0.128-0.179-0.384l1.101-0.282v-4.582h-0.909c-0.119 0-0.179-0.158-0.179-0.474 0-0.017 0.282-0.064 0.845-0.141 0.572-0.085 0.887-0.128 0.947-0.128 0.137 0.077 0.205 0.196 0.205 0.358v4.966zM55.213 15.244c0.29 0 0.435 0.239 0.435 0.717l-0.090 0.717c-0.265 0.077-0.482 0.115-0.653 0.115-0.299 0-0.448-0.235-0.448-0.704 0-0.213 0.034-0.465 0.102-0.755 0.273-0.060 0.491-0.090 0.653-0.090zM60.675 18.712c-0.273-0.154-0.623-0.23-1.050-0.23s-0.789 0.145-1.088 0.435c-0.034 0.102-0.051 0.243-0.051 0.422 0 0.307 0.158 0.55 0.474 0.73l1.6 0.922c0.725 0.427 1.088 0.939 1.088 1.536 0 0.495-0.192 0.875-0.576 1.139s-0.909 0.397-1.574 0.397c-0.657 0-1.314-0.111-1.971-0.333 0-0.128 0.043-0.439 0.128-0.934s0.132-0.742 0.141-0.742c0.316 0 0.474 0.060 0.474 0.179v0.922c0.341 0.247 0.734 0.371 1.178 0.371 0.879 0 1.318-0.294 1.318-0.883 0-0.324-0.213-0.61-0.64-0.858l-1.485-0.858c-0.606-0.35-0.909-0.832-0.909-1.446 0-0.435 0.179-0.802 0.538-1.101 0.358-0.307 0.841-0.457 1.446-0.448 0.614 0 1.182 0.098 1.702 0.294 0 0.119-0.043 0.401-0.128 0.845s-0.132 0.666-0.141 0.666c-0.316 0-0.474-0.060-0.474-0.179v-0.845zM65.948 23.448c-0.495 0.41-1.011 0.614-1.549 0.614-0.691 0-1.037-0.405-1.037-1.216v-4.16h-0.794c-0.119 0-0.179-0.166-0.179-0.499l1.062-0.179 0.333-1.434 0.486-0.154v1.651h1.51c0 0.41-0.060 0.614-0.179 0.614h-1.331v4.083c0 0.435 0.166 0.653 0.499 0.653 0.247 0 0.567-0.119 0.96-0.358 0.111 0.102 0.183 0.23 0.218 0.384z">
            </path>
            <path fill="none" stroke="#d2c9be" style="stroke: var(--color2, #d2c9be)" stroke-linejoin="miter"
                stroke-linecap="butt" stroke-miterlimit="4" stroke-width="0.7111"
                d="M0.711 16.3c10.892 1.647 49.399-4.498 49.882-5.87M16.073 25.525c8.985 0 27.397-1.098 36.55 5.764">
            </path>
            <path fill="#d2c9be" style="fill: var(--color2, #d2c9be)"
                d="M3.306 3.261v6.917c0.2 0.026 0.393 0.046 0.578 0.061 0.185 0.011 0.367 0.017 0.544 0.017 0.626 0 1.187-0.080 1.683-0.239 0.496-0.163 0.917-0.407 1.261-0.733 0.344-0.33 0.607-0.739 0.789-1.228 0.185-0.493 0.278-1.070 0.278-1.733-0.004-0.437-0.059-0.824-0.167-1.161s-0.257-0.63-0.45-0.878c-0.193-0.252-0.42-0.461-0.683-0.628-0.259-0.17-0.543-0.307-0.85-0.411-0.304-0.107-0.626-0.183-0.967-0.228-0.337-0.044-0.68-0.067-1.028-0.067-0.167 0-0.333 0.006-0.5 0.017s-0.337 0.026-0.511 0.044c0.007 0.052 0.013 0.1 0.017 0.144 0.004 0.041 0.006 0.076 0.006 0.106zM1.45 2.828c0.322-0.041 0.611-0.076 0.867-0.106 0.256-0.033 0.504-0.061 0.744-0.083s0.489-0.039 0.744-0.050c0.256-0.011 0.544-0.017 0.867-0.017 0.278 0 0.532 0.007 0.761 0.022s0.446 0.041 0.65 0.078c0.207 0.033 0.409 0.080 0.606 0.139 0.2 0.056 0.409 0.124 0.628 0.206 0.293 0.111 0.561 0.261 0.806 0.45 0.248 0.185 0.461 0.413 0.639 0.683s0.315 0.585 0.411 0.944c0.1 0.359 0.15 0.769 0.15 1.228-0.004 0.544-0.074 1.030-0.211 1.456s-0.328 0.8-0.572 1.122c-0.244 0.322-0.535 0.596-0.872 0.822-0.333 0.226-0.696 0.409-1.089 0.55s-0.807 0.243-1.244 0.306c-0.437 0.063-0.88 0.094-1.328 0.094-0.037 0-0.159 0-0.367 0-0.204 0.004-0.422 0.015-0.656 0.033s-0.437 0.039-0.611 0.061l-0.033-0.056c0.074-0.107 0.111-0.304 0.111-0.589v-5.85c0-0.244-0.011-0.448-0.033-0.611-0.022-0.167-0.063-0.3-0.122-0.4s-0.143-0.17-0.25-0.211c-0.107-0.044-0.209-0.067-0.306-0.067s-0.157 0-0.183 0c-0.026 0-0.054 0.002-0.083 0.006l-0.022-0.161zM14.9 10.039c0 0.063 0.013 0.122 0.039 0.178 0.030 0.052 0.063 0.096 0.1 0.133 0.041 0.033 0.098 0.067 0.172 0.1s0.139 0.059 0.194 0.078c0.056 0.018 0.133 0.043 0.233 0.072l-0.044 0.133c-0.237-0.044-0.472-0.067-0.706-0.067-0.293 0-0.581 0.030-0.867 0.089l-0.033-0.056c0.078-0.107 0.117-0.304 0.117-0.589v-0.367c-0.185 0.344-0.474 0.622-0.867 0.833-0.389 0.211-0.783 0.317-1.183 0.317-0.426 0-0.77-0.109-1.033-0.328-0.259-0.222-0.389-0.55-0.389-0.983 0-0.282 0.057-0.531 0.172-0.75 0.119-0.222 0.274-0.409 0.467-0.561 0.196-0.156 0.446-0.293 0.75-0.411 0.307-0.119 0.622-0.215 0.944-0.289 0.326-0.074 0.706-0.143 1.139-0.205v-0.511c0-1.019-0.402-1.528-1.206-1.528-0.259 0-0.578 0.065-0.956 0.194-0.374 0.126-0.689 0.293-0.944 0.5l-0.228-0.261c0.322-0.256 0.704-0.467 1.144-0.633 0.444-0.167 0.859-0.25 1.244-0.25 0.17 0 0.332 0.017 0.483 0.050 0.156 0.030 0.311 0.087 0.467 0.172 0.159 0.081 0.294 0.187 0.406 0.317 0.115 0.126 0.207 0.296 0.278 0.511 0.070 0.211 0.106 0.452 0.106 0.722v3.389zM12.317 10.472c0.322 0 0.659-0.106 1.011-0.317 0.352-0.215 0.611-0.481 0.778-0.8v-1.694c-0.948 0.137-1.626 0.348-2.033 0.633-0.404 0.281-0.606 0.693-0.606 1.233 0 0.33 0.070 0.57 0.211 0.722 0.141 0.148 0.354 0.222 0.639 0.222zM17.439 6.55c0-0.248-0.013-0.456-0.039-0.622-0.022-0.167-0.065-0.3-0.128-0.4-0.059-0.1-0.143-0.17-0.25-0.211s-0.294-0.059-0.561-0.056l-0.022-0.1c0.604-0.181 1.165-0.272 1.683-0.272 0.078 0.196 0.117 0.407 0.117 0.633v0.683l0.022 0.022c0.156-0.215 0.304-0.406 0.444-0.572 0.144-0.167 0.291-0.306 0.439-0.417s0.304-0.194 0.467-0.25c0.163-0.059 0.344-0.089 0.544-0.089 0.126 0 0.265 0.011 0.417 0.033l-0.322 1.356-0.206-0.061c0-0.056-0.004-0.131-0.011-0.228s-0.019-0.191-0.033-0.283c-0.011-0.096-0.028-0.178-0.050-0.244-0.019-0.070-0.041-0.106-0.067-0.106-0.107 0-0.217 0.024-0.328 0.072-0.107 0.044-0.226 0.119-0.356 0.222s-0.272 0.239-0.428 0.406c-0.156 0.167-0.333 0.369-0.533 0.606v3.233c0 0.119 0.009 0.215 0.028 0.289 0.018 0.070 0.057 0.13 0.117 0.178s0.143 0.091 0.25 0.128c0.107 0.037 0.248 0.078 0.422 0.122l-0.044 0.133c-0.215-0.030-0.398-0.052-0.55-0.067-0.148-0.015-0.268-0.022-0.361-0.022-0.211 0-0.457 0.030-0.739 0.089l-0.033-0.056c0.074-0.107 0.111-0.304 0.111-0.589v-3.561zM26.556 5.056l-2.367 6.133c-0.1 0.263-0.187 0.48-0.261 0.65-0.070 0.17-0.154 0.346-0.25 0.528-0.096 0.185-0.191 0.335-0.283 0.45-0.089 0.115-0.194 0.219-0.317 0.311-0.118 0.096-0.248 0.17-0.389 0.222-0.589 0.022-1.105-0.178-1.55-0.6 0.2-0.244 0.478-0.454 0.833-0.628l0.067 0.067c0.148 0.344 0.387 0.593 0.717 0.744 0.159-0.13 0.322-0.344 0.489-0.644 0.17-0.296 0.38-0.78 0.628-1.45l-1.978-4.678c-0.104-0.263-0.22-0.452-0.35-0.567-0.126-0.115-0.257-0.17-0.394-0.167-0.133 0.004-0.287 0.017-0.461 0.039l-0.061-0.111c0.622-0.311 1.169-0.467 1.639-0.467l1.672 4.072c0.074 0.178 0.161 0.518 0.261 1.022h0.095c0.178-0.589 0.268-0.889 0.272-0.9l1.239-3.55c0.048-0.133-0.007-0.228-0.167-0.283-0.159-0.059-0.4-0.074-0.722-0.044l-0.033-0.139c0.315-0.063 0.85-0.104 1.606-0.122l0.067 0.111zM31.344 10.039c0 0.063 0.013 0.122 0.039 0.178 0.030 0.052 0.063 0.096 0.1 0.133 0.041 0.033 0.098 0.067 0.172 0.1s0.139 0.059 0.195 0.078c0.056 0.018 0.133 0.043 0.233 0.072l-0.044 0.133c-0.237-0.044-0.472-0.067-0.706-0.067-0.293 0-0.581 0.030-0.867 0.089l-0.033-0.056c0.078-0.107 0.117-0.304 0.117-0.589v-0.367c-0.185 0.344-0.474 0.622-0.867 0.833-0.389 0.211-0.783 0.317-1.183 0.317-0.426 0-0.77-0.109-1.033-0.328-0.259-0.222-0.389-0.55-0.389-0.983 0-0.282 0.057-0.531 0.172-0.75 0.119-0.222 0.274-0.409 0.467-0.561 0.196-0.156 0.446-0.293 0.75-0.411 0.307-0.119 0.622-0.215 0.945-0.289 0.326-0.074 0.706-0.143 1.139-0.205v-0.511c0-1.019-0.402-1.528-1.206-1.528-0.259 0-0.578 0.065-0.956 0.194-0.374 0.126-0.689 0.293-0.944 0.5l-0.228-0.261c0.322-0.256 0.704-0.467 1.144-0.633 0.444-0.167 0.859-0.25 1.244-0.25 0.17 0 0.332 0.017 0.483 0.050 0.156 0.030 0.311 0.087 0.467 0.172 0.159 0.081 0.294 0.187 0.406 0.317 0.115 0.126 0.207 0.296 0.278 0.511 0.070 0.211 0.106 0.452 0.106 0.722v3.389zM28.761 10.472c0.322 0 0.659-0.106 1.011-0.317 0.352-0.215 0.611-0.481 0.778-0.8v-1.694c-0.948 0.137-1.626 0.348-2.033 0.633-0.404 0.281-0.606 0.693-0.606 1.233 0 0.33 0.070 0.57 0.211 0.722 0.141 0.148 0.354 0.222 0.639 0.222z">
            </path>
        </symbol>
        <symbol id="menu-open-icon" viewBox="0 0 41 32">
            <path fill="none" stroke="#e3e3e3" style="stroke: var(--color1, #e3e3e3)" stroke-linejoin="miter"
                stroke-linecap="round" stroke-miterlimit="4" stroke-width="1.28" d="M1.28 0.64h35.84"></path>
            <path fill="none" stroke="#e3e3e3" style="stroke: var(--color1, #e3e3e3)" stroke-linejoin="miter"
                stroke-linecap="round" stroke-miterlimit="4" stroke-width="1.28" d="M3.84 9.173h35.84"></path>
            <path fill="none" stroke="#e3e3e3" style="stroke: var(--color1, #e3e3e3)" stroke-linejoin="miter"
                stroke-linecap="round" stroke-miterlimit="4" stroke-width="1.28" d="M1.28 17.707h35.84"></path>
            <path fill="none" stroke="#e3e3e3" style="stroke: var(--color1, #e3e3e3)" stroke-linejoin="miter"
                stroke-linecap="round" stroke-miterlimit="4" stroke-width="1.28" d="M3.84 26.24h35.84"></path>
        </symbol>
        <symbol id="menu-close-icon" viewBox="0 0 31 32">
            <path fill="none" stroke="#d2c9be" style="stroke: var(--color1, #d2c9be)" stroke-linejoin="miter"
                stroke-linecap="butt" stroke-miterlimit="4" stroke-width="1.5446" d="M0.822 31.446l29.532-30.387">
            </path>
            <path fill="none" stroke="#d2c9be" style="stroke: var(--color1, #d2c9be)" stroke-linejoin="miter"
                stroke-linecap="butt" stroke-miterlimit="4" stroke-width="1.5446" d="M0.538 0.554l29.532 30.387"></path>
        </symbol>
        <symbol id="next-icon" viewBox="0 0 68 32">
            <path fill="none" stroke="#d2c9be" style="stroke: var(--color2, #d2c9be)" stroke-linejoin="miter"
                stroke-linecap="butt" stroke-miterlimit="4" stroke-width="1.0323"
                d="M1.032 1.032l33.032 29.935 33.032-29.935"></path>
        </symbol>
        <symbol id="facebook-icon" viewBox="0 0 32 32">
            <path fill="#d2c9be" style="fill: var(--color1, #d2c9be)"
                d="M4.053 0.356c-2.077 0-3.777 1.658-3.777 3.685v23.581c0 2.026 1.7 3.685 3.777 3.685h12.714c0.082 0.013 0.165 0.013 0.246 0h4.285c0.082 0.013 0.165 0.013 0.246 0h6.678c2.077 0 3.777-1.658 3.777-3.685v-23.581c0-2.026-1.7-3.685-3.777-3.685h-24.17zM4.053 1.829h24.17c1.26 0 2.266 0.981 2.266 2.211v23.581c0 1.23-1.006 2.211-2.266 2.211h-6.043v-10.317h2.886l1.058-5.158h-3.943v-1.474c0-0.411 0.040-0.443 0.181-0.533s0.578-0.204 1.329-0.204h2.266v-4.149l-0.431-0.2c0 0-1.735-0.809-4.101-0.809-1.7 0-3.096 0.661-3.989 1.75s-1.298 2.548-1.298 4.145v1.474h-2.266v5.158h2.266v10.317h-12.085c-1.26 0-2.266-0.981-2.266-2.211v-23.581c0-1.23 1.006-2.211 2.266-2.211zM21.425 8.461c1.57 0 2.559 0.338 3.021 0.517v1.694h-0.755c-0.869 0-1.566 0.070-2.152 0.442s-0.869 1.077-0.869 1.769v2.948h3.61l-0.453 2.211h-3.157v11.791h-3.021v-11.791h-2.266v-2.211h2.266v-2.948c0-1.351 0.351-2.471 0.968-3.224s1.487-1.197 2.809-1.197z">
            </path>
        </symbol>
        <symbol id="instagram-icon" viewBox="0 0 32 32">
            <path fill="#d2c9be" style="fill: var(--color1, #d2c9be)"
                d="M5.137 1.265c-2.044 1.018-3.419 2.456-4.394 4.596-0.571 1.252-0.65 2.473-0.656 10.155-0.008 8.68-0.003 8.744 0.91 10.573 0.504 1.012 1.531 2.326 2.281 2.92 2.59 2.051 3.099 2.137 12.532 2.129 9.726-0.009 10.364-0.141 12.895-2.671s2.663-3.169 2.672-12.892c0.009-9.431-0.078-9.939-2.129-12.529-0.594-0.75-1.908-1.776-2.921-2.28-1.829-0.911-1.899-0.917-10.595-0.917s-8.766 0.006-10.594 0.917zM25.335 2.614c1.747 0.929 2.793 1.952 3.681 3.602 0.722 1.341 0.766 1.903 0.766 9.781s-0.044 8.44-0.766 9.781c-0.887 1.648-1.932 2.671-3.681 3.604-1.114 0.594-2.126 0.664-9.605 0.664-7.88 0-8.442-0.044-9.783-0.766-1.649-0.887-2.672-1.931-3.605-3.68-0.594-1.114-0.664-2.125-0.664-9.603s0.070-8.489 0.664-9.603c1.25-2.343 2.908-3.669 5.383-4.306 0.587-0.151 4.509-0.244 8.716-0.205 6.69 0.060 7.804 0.152 8.893 0.731zM23.272 6.465c-0.78 0.78-0.511 2.028 0.493 2.28 1.239 0.311 2.099-0.548 1.788-1.788-0.252-1.003-1.5-1.273-2.281-0.493zM12.263 8.901c-3.004 1.525-4.511 4.217-4.292 7.663 0.168 2.639 1.324 4.62 3.557 6.097 1.294 0.856 1.829 0.981 4.203 0.981s2.909-0.125 4.203-0.981c0.816-0.54 1.925-1.648 2.464-2.464 0.857-1.294 0.982-1.828 0.982-4.202s-0.125-2.908-0.982-4.202c-1.529-2.311-3.465-3.405-6.272-3.544-1.865-0.093-2.665 0.042-3.863 0.65zM18.611 10.502c1.371 0.708 2.735 2.468 3.172 4.088 1.146 4.256-3.256 8.588-7.551 7.432-1.951-0.525-4.003-2.576-4.528-4.527-1.354-5.027 4.231-9.411 8.907-6.994z">
            </path>
        </symbol>
        <symbol id="telegram-icon" viewBox="0 0 32 32">
            <path fill="#d2c9be" style="fill: var(--color1, #d2c9be)"
                d="M11.032 1.043c-12.393 4.268-14.642 20.805-3.808 28.006 2.974 1.977 5.624 2.694 9.406 2.544 2.881-0.114 3.522-0.265 5.875-1.385 3.517-1.673 5.969-4.128 7.639-7.651 1.118-2.357 1.269-2.999 1.382-5.884 0.105-2.662-0.004-3.63-0.612-5.434-1.691-5.013-5.207-8.547-10.171-10.222-2.777-0.937-6.948-0.926-9.711 0.026zM18.155 2.024c7.535 1.234 12.946 8.612 11.753 16.028-1.241 7.719-8.546 13.128-16.087 11.911-7.609-1.227-13.038-8.582-11.839-16.039 1.079-6.711 6.623-11.674 13.623-12.197 0.28-0.021 1.428 0.112 2.55 0.296zM13.565 11.61c-4.021 1.697-7.578 3.323-7.905 3.614-0.776 0.69-0.761 2.211 0.029 2.927 0.894 0.811 4.081 1.682 5.379 1.47 0.891-0.145 1.148-0.050 1.317 0.486 0.239 0.753 5.75 4.589 7.069 4.921 1.256 0.315 2.209-0.1 2.784-1.213 0.551-1.068 2.207-10.718 2.207-12.863 0-1.638-0.81-2.46-2.407-2.441-0.675 0.008-4.232 1.309-8.473 3.099zM22.164 16.329c-0.997 6.439-1.203 7.151-2.077 7.151-0.753 0-5.846-3.36-6.101-4.025-0.103-0.269 0.909-1.555 2.421-3.078 3.957-3.987 3.552-4.173-1.525-0.702-3.344 2.286-3.607 2.402-5.057 2.239-0.841-0.095-1.977-0.343-2.524-0.552-0.859-0.328-0.928-0.445-0.51-0.862 0.466-0.465 11.141-5.107 14.033-6.102 2.287-0.787 2.342-0.545 1.34 5.931z">
            </path>
        </symbol>
        <symbol id="viber-icon" viewBox="0 0 31 32">
            <path fill="#d2c9be" style="fill: var(--color1, #d2c9be)"
                d="M15.133 0.323c-1.010 0.005-2.023 0.061-3.045 0.175-1.953 0.221-3.89 0.587-5.748 1.371-2.955 1.246-5.050 3.361-5.658 6.436-0.258 1.297-0.466 2.612-0.585 3.935-0.229 2.569-0.087 5.147 0.706 7.679 0.625 1.995 1.777 3.789 3.794 4.953 0.854 0.492 1.979 0.731 2.567 0.98 0.165 0.072 0.205 0.114 0.214 0.125 0.009 0.008 0.032 0.027 0.029 0.186-0.020 1.626 0 4.772 0 4.772l0.003 0.678h1.323l0.214-0.191c0 0 3.36-2.968 4.575-4.19 0.22-0.218 0.333-0.34 0.356-0.353 0.020-0.013-0.014-0.021 0.211-0.027 1.595-0.029 3.186-0.085 4.778-0.165 2.098-0.106 4.237-0.29 6.294-1.079 1.791-0.688 3.288-1.812 4.193-3.497 0.926-1.727 1.421-3.558 1.606-5.452 0.307-3.154 0.2-6.313-0.75-9.427-0.559-1.825-1.681-3.369-3.403-4.459-2.061-1.302-4.384-1.791-6.659-2.102-1.328-0.181-2.665-0.3-4.008-0.337-0.336-0.008-0.671-0.013-1.010-0.011zM16.103 1.694c1.276 0.032 2.553 0.146 3.832 0.322 2.194 0.3 4.263 0.757 6.037 1.879 1.438 0.909 2.335 2.136 2.816 3.701 0.886 2.912 0.998 5.896 0.7 8.944-0.171 1.756-0.625 3.412-1.462 4.971-0.738 1.376-1.89 2.251-3.435 2.843-1.794 0.688-3.745 0.872-5.8 0.975-1.574 0.080-3.152 0.133-4.729 0.162-0.396 0.008-0.784 0.104-1.059 0.29s-0.399 0.359-0.57 0.529c-0.868 0.872-2.599 2.405-3.542 3.244-0.006-1.015-0.014-2.243 0-3.375 0.006-0.348-0.081-0.704-0.298-0.986s-0.515-0.452-0.802-0.574c-0.836-0.356-1.93-0.627-2.405-0.901-1.658-0.957-2.599-2.391-3.157-4.177-0.732-2.336-0.871-4.74-0.654-7.187 0.116-1.27 0.315-2.543 0.567-3.805 0.527-2.66 2.182-4.334 4.816-5.444 1.664-0.701 3.441-1.047 5.313-1.257 1.276-0.143 2.553-0.189 3.832-0.154zM16.415 5.084c-0.611 0-1.204 0.064-1.78 0.181-0.397 0.085-0.648 0.449-0.559 0.816s0.489 0.595 0.889 0.513c0.466-0.098 0.952-0.149 1.45-0.149 3.618 0 6.535 2.678 6.535 5.997 0 0.46-0.055 0.906-0.162 1.336-0.090 0.364 0.159 0.731 0.559 0.813s0.796-0.149 0.886-0.515c0.13-0.526 0.2-1.071 0.2-1.634 0-4.055-3.597-7.358-8.016-7.358zM9.024 6.447c-0.122-0.005-0.246 0.003-0.376 0.029-1.346 0.274-2.683 1.169-2.72 2.769 0.038 0.223 0.035 0.462 0.124 0.664 0.44 0.988 0.822 2.009 1.372 2.944 2.677 4.544 6.726 7.703 11.886 9.709 0.616 0.239 1.253 0.29 1.875 0.050 0.857-0.327 1.583-0.832 2.066-1.557 0.663-0.996 0.671-1.687-0.42-2.423-0.715-0.484-1.418-0.98-2.142-1.453-1.103-0.717-2.295-0.842-3.117 0.417-0.043 0.064-0.107 0.117-0.162 0.17-0.422 0.412-0.941 0.513-1.49 0.306-2.087-0.789-3.699-2.062-4.671-3.956-0.573-1.113-0.417-1.671 0.654-2.413 0.107-0.072 0.208-0.149 0.307-0.231 0.469-0.393 0.593-0.861 0.315-1.39-0.628-1.206-1.464-2.283-2.524-3.21-0.286-0.25-0.614-0.407-0.978-0.425zM16.404 7.125c-0.327 0-0.651 0.024-0.969 0.074-0.269 0.032-0.498 0.197-0.596 0.428-0.098 0.234-0.049 0.497 0.124 0.688 0.177 0.189 0.454 0.276 0.721 0.223 0.232-0.035 0.475-0.053 0.721-0.053 2.408 0 4.341 1.775 4.341 3.986 0 0.226-0.020 0.449-0.058 0.662-0.058 0.244 0.038 0.5 0.243 0.662 0.208 0.159 0.495 0.205 0.75 0.114 0.252-0.090 0.431-0.3 0.466-0.547 0.055-0.292 0.081-0.59 0.081-0.89 0-2.944-2.616-5.346-5.823-5.346zM16.299 9.165c-0.266-0.003-0.515 0.125-0.651 0.337-0.133 0.213-0.133 0.473 0 0.685 0.136 0.213 0.385 0.34 0.651 0.337 1.236 0 2.223 0.906 2.223 2.041-0.003 0.244 0.136 0.473 0.368 0.598 0.232 0.122 0.515 0.122 0.747 0 0.232-0.125 0.37-0.353 0.367-0.598 0-1.871-1.667-3.401-3.704-3.401z">
            </path>
        </symbol>
        <symbol id="whatsapp-icon" viewBox="0 0 32 32">
            <path fill="#d2c9be" style="fill: var(--color1, #d2c9be)"
                d="M15.948 0.684c-8.752 0-15.862 6.939-15.862 15.48 0 2.745 0.771 5.308 2.058 7.544l-2.033 7.081c-0.032 0.113-0.034 0.233-0.004 0.347s0.089 0.218 0.173 0.303 0.189 0.146 0.305 0.178c0.116 0.032 0.238 0.035 0.356 0.006l7.566-1.83c2.223 1.158 4.746 1.85 7.441 1.85 8.752 0 15.862-6.939 15.862-15.48s-7.11-15.48-15.862-15.48zM15.948 2.030c8.006 0 14.482 6.32 14.482 14.134s-6.476 14.134-14.482 14.134c-2.567 0-4.971-0.653-7.061-1.794-0.153-0.083-0.332-0.107-0.502-0.066l-6.626 1.602 1.777-6.186c0.025-0.087 0.032-0.179 0.021-0.269s-0.042-0.177-0.089-0.255c-1.27-2.102-2.002-4.547-2.002-7.166 0-7.814 6.476-14.134 14.482-14.134zM10.185 8.088c-0.442 0-1.073 0.161-1.592 0.706-0.312 0.328-1.61 1.562-1.61 3.732 0 2.262 1.608 4.215 1.802 4.465h0.001v0.001c-0.018-0.024 0.247 0.351 0.601 0.8s0.849 1.040 1.471 1.679c1.244 1.278 2.992 2.755 5.163 3.658 1 0.415 1.788 0.666 2.386 0.849 1.107 0.339 2.116 0.288 2.873 0.179 0.567-0.081 1.191-0.347 1.808-0.728s1.222-0.855 1.488-1.575c0.191-0.516 0.288-0.993 0.323-1.386 0.018-0.196 0.020-0.369 0.007-0.53s0.001-0.283-0.152-0.528c-0.321-0.515-0.685-0.528-1.064-0.711-0.211-0.102-0.811-0.388-1.413-0.668s-1.122-0.527-1.443-0.639c-0.203-0.071-0.45-0.174-0.807-0.134s-0.709 0.291-0.915 0.588c-0.195 0.281-0.978 1.183-1.216 1.449-0.003-0.002 0.018 0.007-0.077-0.038-0.295-0.143-0.656-0.264-1.191-0.539s-1.203-0.681-1.934-1.311v-0.001c-1.089-0.935-1.851-2.11-2.092-2.504 0.016-0.019-0.002 0.004 0.032-0.029l0.001-0.001c0.246-0.236 0.464-0.519 0.648-0.726 0.261-0.293 0.376-0.552 0.501-0.794 0.249-0.482 0.11-1.012-0.034-1.291v-0.001c0.010 0.019-0.078-0.17-0.172-0.388s-0.216-0.502-0.345-0.804c-0.258-0.605-0.546-1.283-0.718-1.68v-0.001c-0.202-0.468-0.475-0.805-0.832-0.968s-0.673-0.116-0.686-0.117h-0.001c-0.255-0.011-0.535-0.014-0.812-0.014zM10.185 9.434c0.266 0 0.528 0.003 0.748 0.013 0.226 0.011 0.212 0.012 0.168-0.008s0.016-0.027 0.144 0.271c0.168 0.389 0.458 1.069 0.717 1.676 0.13 0.303 0.251 0.588 0.348 0.811s0.149 0.348 0.21 0.467v0.001l0.001 0.001c0.060 0.115 0.054 0.041 0.034 0.082-0.146 0.282-0.165 0.351-0.312 0.517-0.224 0.252-0.453 0.533-0.574 0.649-0.106 0.102-0.297 0.26-0.416 0.569s-0.064 0.735 0.128 1.053c0.255 0.423 1.096 1.759 2.403 2.881 0.823 0.708 1.59 1.177 2.202 1.492s1.111 0.5 1.223 0.553c0.265 0.128 0.555 0.227 0.892 0.188s0.627-0.239 0.812-0.443l0.001-0.001c0.246-0.272 0.977-1.087 1.328-1.589 0.015 0.005 0.010 0.001 0.127 0.042v0.001h0.001c0.053 0.018 0.72 0.31 1.315 0.586s1.198 0.564 1.394 0.659c0.283 0.137 0.417 0.226 0.451 0.226 0.002 0.059 0.005 0.123-0.004 0.221-0.024 0.27-0.098 0.644-0.246 1.045-0.073 0.196-0.451 0.601-0.928 0.895s-1.058 0.503-1.273 0.534c-0.647 0.093-1.414 0.127-2.258-0.131-0.585-0.179-1.314-0.411-2.258-0.803-1.914-0.797-3.541-2.153-4.704-3.347-0.581-0.597-1.047-1.153-1.378-1.573s-0.475-0.638-0.595-0.793l-0.001-0.001c-0.214-0.276-1.522-2.052-1.522-3.652 0-1.693 0.806-2.357 1.242-2.816 0.229-0.241 0.479-0.276 0.581-0.276z">
            </path>
        </symbol>
        <symbol id="booksy-icon" viewBox="0 0 32 32">
            <path fill="none" stroke="#d2c9be" style="stroke: var(--color1, #d2c9be)" stroke-linejoin="miter"
                stroke-linecap="butt" stroke-miterlimit="4" stroke-width="1.5645"
                d="M6.855 1.478h18.517c3.024 0 5.476 2.452 5.476 5.476v17.771c0 3.024-2.452 5.476-5.476 5.476h-18.517c-3.024 0-5.476-2.452-5.476-5.476v-17.771c0-3.024 2.452-5.476 5.476-5.476z">
            </path>
            <path fill="none" stroke="#d2c9be" style="stroke: var(--color1, #d2c9be)" stroke-linejoin="miter"
                stroke-linecap="butt" stroke-miterlimit="4" stroke-width="1.5645"
                d="M6.855 20.237c1.994-2.472 4.487-2.207 5.484-1.766 1.994 1.413 4.985 3.532 6.481 3.974 3.59 0.706 5.816-1.178 6.481-2.208 1.197-2.826-1.163-5.004-2.493-5.739-1.994-0.706-3.49 0.294-3.988 0.883-0.798 1.060-0.997 2.208-0.997 2.649v0.883-8.83">
            </path>
        </symbol>
    </defs>
</svg>